<mxfile host="65bd71144e">
    <diagram id="qAZBfL1JPHvGY2etlOXa" name="Page-1">
        <mxGraphModel dx="12360" dy="8630" grid="0" gridSize="10" guides="1" tooltips="1" connect="1" arrows="1" fold="1" page="0" pageScale="1" pageWidth="1100" pageHeight="850" background="none" math="0" shadow="0" adaptiveColors="auto">
            <root>
                <mxCell id="0"/>
                <mxCell id="1" parent="0"/>
                <mxCell id="31" value="" style="rounded=1;whiteSpace=wrap;html=1;strokeColor=#3EFF38;sketch=1;curveFitting=1;jiggle=2;fillColor=none;movable=0;resizable=0;rotatable=0;deletable=0;editable=0;locked=1;connectable=0;" parent="1" vertex="1">
                    <mxGeometry x="90" y="90" width="640" height="130" as="geometry"/>
                </mxCell>
                <mxCell id="11" value="&lt;font style=&quot;font-size: 14px;&quot;&gt;Visualized Function&lt;/font&gt;&lt;div&gt;&lt;br&gt;&lt;/div&gt;" style="text;html=1;align=center;verticalAlign=middle;resizable=0;points=[];autosize=1;strokeColor=none;fillColor=none;sketch=1;curveFitting=1;jiggle=2;rounded=1;movable=0;rotatable=0;deletable=0;editable=0;locked=1;connectable=0;" parent="1" vertex="1">
                    <mxGeometry x="104" y="-71" width="140" height="40" as="geometry"/>
                </mxCell>
                <mxCell id="23" value="indexes&lt;div&gt;&lt;br&gt;&lt;/div&gt;" style="text;html=1;align=center;verticalAlign=middle;resizable=0;points=[];autosize=1;strokeColor=none;fillColor=none;sketch=1;curveFitting=1;jiggle=2;rounded=1;movable=0;rotatable=0;deletable=0;editable=0;locked=1;connectable=0;" parent="1" vertex="1">
                    <mxGeometry x="10" y="98" width="60" height="40" as="geometry"/>
                </mxCell>
                <mxCell id="2" value="64" style="whiteSpace=wrap;html=1;aspect=fixed;sketch=1;curveFitting=1;jiggle=2;rounded=1;fillColor=none;movable=0;resizable=0;rotatable=0;deletable=0;editable=0;locked=1;connectable=0;" parent="1" vertex="1">
                    <mxGeometry x="110" y="120" width="80" height="80" as="geometry"/>
                </mxCell>
                <mxCell id="3" value="10" style="whiteSpace=wrap;html=1;aspect=fixed;sketch=1;curveFitting=1;jiggle=2;rounded=1;fillColor=none;movable=0;resizable=0;rotatable=0;deletable=0;editable=0;locked=1;connectable=0;" parent="1" vertex="1">
                    <mxGeometry x="240" y="120" width="80" height="80" as="geometry"/>
                </mxCell>
                <mxCell id="5" value="114" style="whiteSpace=wrap;html=1;aspect=fixed;sketch=1;curveFitting=1;jiggle=2;rounded=1;fillColor=none;movable=0;resizable=0;rotatable=0;deletable=0;editable=0;locked=1;connectable=0;" parent="1" vertex="1">
                    <mxGeometry x="370" y="120" width="80" height="80" as="geometry"/>
                </mxCell>
                <mxCell id="12" value="23" style="whiteSpace=wrap;html=1;aspect=fixed;sketch=1;curveFitting=1;jiggle=2;rounded=1;fillColor=none;movable=0;resizable=0;rotatable=0;deletable=0;editable=0;locked=1;connectable=0;" parent="1" vertex="1">
                    <mxGeometry x="490" y="120" width="80" height="80" as="geometry"/>
                </mxCell>
                <mxCell id="14" value="11" style="whiteSpace=wrap;html=1;aspect=fixed;sketch=1;curveFitting=1;jiggle=2;rounded=1;fillColor=none;movable=0;resizable=0;rotatable=0;deletable=0;editable=0;locked=1;connectable=0;" parent="1" vertex="1">
                    <mxGeometry x="620" y="120" width="80" height="80" as="geometry"/>
                </mxCell>
                <mxCell id="15" value="" style="edgeStyle=none;html=1;sketch=1;curveFitting=1;jiggle=2;rounded=1;movable=0;resizable=0;rotatable=0;deletable=0;editable=0;locked=1;connectable=0;" parent="1" source="12" target="14" edge="1">
                    <mxGeometry relative="1" as="geometry"/>
                </mxCell>
                <mxCell id="13" value="" style="edgeStyle=none;html=1;sketch=1;curveFitting=1;jiggle=2;rounded=1;movable=0;resizable=0;rotatable=0;deletable=0;editable=0;locked=1;connectable=0;" parent="1" source="5" target="12" edge="1">
                    <mxGeometry relative="1" as="geometry"/>
                </mxCell>
                <mxCell id="6" value="" style="edgeStyle=none;html=1;sketch=1;curveFitting=1;jiggle=2;rounded=1;movable=0;resizable=0;rotatable=0;deletable=0;editable=0;locked=1;connectable=0;" parent="1" source="3" target="5" edge="1">
                    <mxGeometry relative="1" as="geometry"/>
                </mxCell>
                <mxCell id="4" style="edgeStyle=none;html=1;sketch=1;curveFitting=1;jiggle=2;rounded=1;movable=0;resizable=0;rotatable=0;deletable=0;editable=0;locked=1;connectable=0;" parent="1" source="2" target="3" edge="1">
                    <mxGeometry relative="1" as="geometry"/>
                </mxCell>
                <mxCell id="16" value="&lt;p&gt;0&lt;/p&gt;" style="text;html=1;align=center;verticalAlign=middle;resizable=0;points=[];autosize=1;strokeColor=none;fillColor=none;sketch=1;curveFitting=1;jiggle=2;rounded=1;movable=0;rotatable=0;deletable=0;editable=0;locked=1;connectable=0;" parent="1" vertex="1">
                    <mxGeometry x="135" y="88" width="30" height="50" as="geometry"/>
                </mxCell>
                <mxCell id="17" value="1" style="text;html=1;align=center;verticalAlign=middle;resizable=0;points=[];autosize=1;strokeColor=none;fillColor=none;sketch=1;curveFitting=1;jiggle=2;rounded=1;movable=0;rotatable=0;deletable=0;editable=0;locked=1;connectable=0;" parent="1" vertex="1">
                    <mxGeometry x="265" y="98" width="30" height="30" as="geometry"/>
                </mxCell>
                <mxCell id="20" value="2" style="text;html=1;align=center;verticalAlign=middle;resizable=0;points=[];autosize=1;strokeColor=none;fillColor=none;sketch=1;curveFitting=1;jiggle=2;rounded=1;movable=0;rotatable=0;deletable=0;editable=0;locked=1;connectable=0;" parent="1" vertex="1">
                    <mxGeometry x="395" y="98" width="30" height="30" as="geometry"/>
                </mxCell>
                <mxCell id="21" value="3" style="text;html=1;align=center;verticalAlign=middle;resizable=0;points=[];autosize=1;strokeColor=none;fillColor=none;sketch=1;curveFitting=1;jiggle=2;rounded=1;movable=0;rotatable=0;deletable=0;editable=0;locked=1;connectable=0;" parent="1" vertex="1">
                    <mxGeometry x="515" y="98" width="30" height="30" as="geometry"/>
                </mxCell>
                <mxCell id="22" value="4" style="text;html=1;align=center;verticalAlign=middle;resizable=0;points=[];autosize=1;strokeColor=none;fillColor=none;sketch=1;curveFitting=1;jiggle=2;rounded=1;movable=0;rotatable=0;deletable=0;editable=0;locked=1;connectable=0;" parent="1" vertex="1">
                    <mxGeometry x="645" y="98" width="30" height="30" as="geometry"/>
                </mxCell>
                <mxCell id="27" style="edgeStyle=none;html=1;entryX=-0.025;entryY=0.496;entryDx=0;entryDy=0;entryPerimeter=0;sketch=1;curveFitting=1;jiggle=2;rounded=1;movable=0;resizable=0;rotatable=0;deletable=0;editable=0;locked=1;connectable=0;" parent="1" source="24" target="16" edge="1">
                    <mxGeometry relative="1" as="geometry"/>
                </mxCell>
                <mxCell id="24" value="" style="whiteSpace=wrap;html=1;sketch=1;curveFitting=1;jiggle=2;rounded=1;fillColor=none;movable=0;resizable=0;rotatable=0;deletable=0;editable=0;locked=1;connectable=0;" parent="1" vertex="1">
                    <mxGeometry x="5" y="98" width="70" height="30" as="geometry"/>
                </mxCell>
                <mxCell id="32" value="&lt;b&gt;The Array&amp;nbsp;&lt;/b&gt;" style="text;html=1;align=center;verticalAlign=middle;resizable=0;points=[];autosize=1;strokeColor=none;fillColor=none;sketch=1;curveFitting=1;jiggle=2;rounded=1;movable=0;rotatable=0;deletable=0;editable=0;locked=1;connectable=0;" parent="1" vertex="1">
                    <mxGeometry x="360" y="58" width="80" height="30" as="geometry"/>
                </mxCell>
                <mxCell id="34" style="edgeStyle=none;html=1;entryX=0;entryY=0.5;entryDx=0;entryDy=0;sketch=1;curveFitting=1;jiggle=2;rounded=1;movable=0;resizable=0;rotatable=0;deletable=0;editable=0;locked=1;connectable=0;" parent="1" source="33" target="24" edge="1">
                    <mxGeometry relative="1" as="geometry"/>
                </mxCell>
                <mxCell id="33" value="&lt;font color=&quot;#3df2ff&quot;&gt;int&lt;/font&gt;&lt;font color=&quot;#2616ff&quot;&gt; max = n - 1;&lt;/font&gt;" style="rounded=1;whiteSpace=wrap;html=1;sketch=1;curveFitting=1;jiggle=2;fillColor=none;movable=0;resizable=0;rotatable=0;deletable=0;editable=0;locked=1;connectable=0;" parent="1" vertex="1">
                    <mxGeometry x="-130" y="98" width="90" height="30" as="geometry"/>
                </mxCell>
                <mxCell id="35" value="A variable that defines&amp;nbsp; the&amp;nbsp;&amp;nbsp;&lt;div&gt;max&amp;nbsp; size of the array&lt;/div&gt;" style="text;html=1;align=center;verticalAlign=middle;resizable=0;points=[];autosize=1;strokeColor=none;fillColor=none;movable=0;rotatable=0;deletable=0;editable=0;locked=1;connectable=0;" parent="1" vertex="1">
                    <mxGeometry x="-177" y="49" width="166" height="41" as="geometry"/>
                </mxCell>
                <mxCell id="37" value="1" style="text;html=1;align=center;verticalAlign=middle;resizable=0;points=[];autosize=1;strokeColor=none;fillColor=none;movable=0;rotatable=0;deletable=0;editable=0;locked=1;connectable=0;" parent="1" vertex="1">
                    <mxGeometry x="138" y="200" width="25" height="26" as="geometry"/>
                </mxCell>
                <mxCell id="38" value="2" style="text;html=1;align=center;verticalAlign=middle;resizable=0;points=[];autosize=1;strokeColor=none;fillColor=none;movable=0;rotatable=0;deletable=0;editable=0;locked=1;connectable=0;" parent="1" vertex="1">
                    <mxGeometry x="267.5" y="200" width="25" height="26" as="geometry"/>
                </mxCell>
                <mxCell id="39" value="3" style="text;html=1;align=center;verticalAlign=middle;resizable=0;points=[];autosize=1;strokeColor=none;fillColor=none;movable=0;rotatable=0;deletable=0;editable=0;locked=1;connectable=0;" parent="1" vertex="1">
                    <mxGeometry x="397.5" y="198" width="25" height="26" as="geometry"/>
                </mxCell>
                <mxCell id="40" value="4" style="text;html=1;align=center;verticalAlign=middle;resizable=0;points=[];autosize=1;strokeColor=none;fillColor=none;movable=0;rotatable=0;deletable=0;editable=0;locked=1;connectable=0;" parent="1" vertex="1">
                    <mxGeometry x="517.5" y="200" width="25" height="26" as="geometry"/>
                </mxCell>
                <mxCell id="41" value="5" style="text;html=1;align=center;verticalAlign=middle;resizable=0;points=[];autosize=1;strokeColor=none;fillColor=none;movable=0;rotatable=0;deletable=0;editable=0;locked=1;connectable=0;" parent="1" vertex="1">
                    <mxGeometry x="647.5" y="198" width="25" height="26" as="geometry"/>
                </mxCell>
                <mxCell id="44" value="int n = arr.length;" style="shape=process;whiteSpace=wrap;html=1;backgroundOutline=1;movable=0;resizable=0;rotatable=0;deletable=0;editable=0;locked=1;connectable=0;" parent="1" vertex="1">
                    <mxGeometry x="90.5" y="267" width="120" height="60" as="geometry"/>
                </mxCell>
                <mxCell id="50" value="" style="edgeStyle=segmentEdgeStyle;endArrow=classic;html=1;curved=0;rounded=0;endSize=8;startSize=8;exitX=1;exitY=0.5;exitDx=0;exitDy=0;entryX=0.493;entryY=1.048;entryDx=0;entryDy=0;entryPerimeter=0;movable=0;resizable=0;rotatable=0;deletable=0;editable=0;locked=1;connectable=0;" parent="1" source="44" target="41" edge="1">
                    <mxGeometry width="50" height="50" relative="1" as="geometry">
                        <mxPoint x="293" y="278" as="sourcePoint"/>
                        <mxPoint x="343" y="228" as="targetPoint"/>
                    </mxGeometry>
                </mxCell>
                <mxCell id="52" value="" style="edgeStyle=segmentEdgeStyle;endArrow=classic;html=1;curved=0;rounded=0;endSize=8;startSize=8;entryX=0.505;entryY=0.994;entryDx=0;entryDy=0;entryPerimeter=0;exitX=1;exitY=0.5;exitDx=0;exitDy=0;movable=0;resizable=0;rotatable=0;deletable=0;editable=0;locked=1;connectable=0;" parent="1" source="44" target="40" edge="1">
                    <mxGeometry width="50" height="50" relative="1" as="geometry">
                        <mxPoint x="481" y="282" as="sourcePoint"/>
                        <mxPoint x="531" y="232" as="targetPoint"/>
                    </mxGeometry>
                </mxCell>
                <mxCell id="53" value="" style="edgeStyle=segmentEdgeStyle;endArrow=classic;html=1;curved=0;rounded=0;endSize=8;startSize=8;entryX=0.481;entryY=1.048;entryDx=0;entryDy=0;entryPerimeter=0;movable=0;resizable=0;rotatable=0;deletable=0;editable=0;locked=1;connectable=0;" parent="1" target="39" edge="1">
                    <mxGeometry width="50" height="50" relative="1" as="geometry">
                        <mxPoint x="214" y="297" as="sourcePoint"/>
                        <mxPoint x="343" y="228" as="targetPoint"/>
                    </mxGeometry>
                </mxCell>
                <mxCell id="54" value="" style="edgeStyle=segmentEdgeStyle;endArrow=classic;html=1;curved=0;rounded=0;endSize=8;startSize=8;exitX=1;exitY=0.5;exitDx=0;exitDy=0;entryX=0.5;entryY=0.955;entryDx=0;entryDy=0;entryPerimeter=0;movable=0;resizable=0;rotatable=0;deletable=0;editable=0;locked=1;connectable=0;" parent="1" source="44" target="38" edge="1">
                    <mxGeometry width="50" height="50" relative="1" as="geometry">
                        <mxPoint x="256" y="277" as="sourcePoint"/>
                        <mxPoint x="306" y="227" as="targetPoint"/>
                    </mxGeometry>
                </mxCell>
                <mxCell id="55" value="" style="endArrow=classic;html=1;entryX=0.547;entryY=1.051;entryDx=0;entryDy=0;entryPerimeter=0;exitX=0.5;exitY=0;exitDx=0;exitDy=0;movable=0;resizable=0;rotatable=0;deletable=0;editable=0;locked=1;connectable=0;" parent="1" source="44" target="37" edge="1">
                    <mxGeometry width="50" height="50" relative="1" as="geometry">
                        <mxPoint x="123" y="268" as="sourcePoint"/>
                        <mxPoint x="173" y="218" as="targetPoint"/>
                    </mxGeometry>
                </mxCell>
                <mxCell id="56" value="Real Counting&lt;div&gt;&lt;br&gt;&lt;/div&gt;" style="text;html=1;align=center;verticalAlign=middle;resizable=0;points=[];autosize=1;strokeColor=none;fillColor=none;movable=0;rotatable=0;deletable=0;editable=0;locked=1;connectable=0;" parent="1" vertex="1">
                    <mxGeometry x="358" y="327" width="94" height="41" as="geometry"/>
                </mxCell>
                <mxCell id="59" value="n =&amp;nbsp; 5" style="text;html=1;align=center;verticalAlign=middle;resizable=0;points=[];autosize=1;strokeColor=none;fillColor=none;movable=0;rotatable=0;deletable=0;editable=0;locked=1;connectable=0;" parent="1" vertex="1">
                    <mxGeometry x="-34" y="284" width="48" height="26" as="geometry"/>
                </mxCell>
                <mxCell id="62" value="" style="endArrow=none;html=1;exitX=1.038;exitY=0.545;exitDx=0;exitDy=0;exitPerimeter=0;entryX=0;entryY=0.5;entryDx=0;entryDy=0;movable=0;resizable=0;rotatable=0;deletable=0;editable=0;locked=1;connectable=0;" parent="1" source="59" target="44" edge="1">
                    <mxGeometry width="50" height="50" relative="1" as="geometry">
                        <mxPoint x="65" y="305" as="sourcePoint"/>
                        <mxPoint x="115" y="255" as="targetPoint"/>
                    </mxGeometry>
                </mxCell>
                <mxCell id="63" value="" style="edgeStyle=segmentEdgeStyle;endArrow=classic;html=1;curved=0;rounded=0;endSize=8;startSize=8;entryX=0.5;entryY=1;entryDx=0;entryDy=0;movable=0;resizable=0;rotatable=0;deletable=0;editable=0;locked=1;connectable=0;" parent="1" target="33" edge="1">
                    <mxGeometry width="50" height="50" relative="1" as="geometry">
                        <mxPoint x="-37" y="299" as="sourcePoint"/>
                        <mxPoint x="115" y="255" as="targetPoint"/>
                    </mxGeometry>
                </mxCell>
                <mxCell id="64" value="" style="rounded=1;whiteSpace=wrap;html=1;strokeColor=#3EFF38;sketch=1;curveFitting=1;jiggle=2;fillColor=none;movable=0;resizable=0;rotatable=0;deletable=0;editable=0;locked=1;connectable=0;" parent="1" vertex="1">
                    <mxGeometry x="90" y="568" width="640" height="130" as="geometry"/>
                </mxCell>
                <mxCell id="65" value="64" style="whiteSpace=wrap;html=1;aspect=fixed;sketch=1;curveFitting=1;jiggle=2;rounded=1;fillColor=none;movable=0;resizable=0;rotatable=0;deletable=0;editable=0;locked=1;connectable=0;" parent="1" vertex="1">
                    <mxGeometry x="110" y="598" width="80" height="80" as="geometry"/>
                </mxCell>
                <mxCell id="66" value="10" style="whiteSpace=wrap;html=1;aspect=fixed;sketch=1;curveFitting=1;jiggle=2;rounded=1;fillColor=none;movable=0;resizable=0;rotatable=0;deletable=0;editable=0;locked=1;connectable=0;" parent="1" vertex="1">
                    <mxGeometry x="240" y="598" width="80" height="80" as="geometry"/>
                </mxCell>
                <mxCell id="67" value="114" style="whiteSpace=wrap;html=1;aspect=fixed;sketch=1;curveFitting=1;jiggle=2;rounded=1;fillColor=none;movable=0;resizable=0;rotatable=0;deletable=0;editable=0;locked=1;connectable=0;" parent="1" vertex="1">
                    <mxGeometry x="370" y="598" width="80" height="80" as="geometry"/>
                </mxCell>
                <mxCell id="68" value="23" style="whiteSpace=wrap;html=1;aspect=fixed;sketch=1;curveFitting=1;jiggle=2;rounded=1;fillColor=none;movable=0;resizable=0;rotatable=0;deletable=0;editable=0;locked=1;connectable=0;" parent="1" vertex="1">
                    <mxGeometry x="490" y="598" width="80" height="80" as="geometry"/>
                </mxCell>
                <mxCell id="69" value="11" style="whiteSpace=wrap;html=1;aspect=fixed;sketch=1;curveFitting=1;jiggle=2;rounded=1;fillColor=none;movable=0;resizable=0;rotatable=0;deletable=0;editable=0;locked=1;connectable=0;" parent="1" vertex="1">
                    <mxGeometry x="620" y="598" width="80" height="80" as="geometry"/>
                </mxCell>
                <mxCell id="70" value="" style="edgeStyle=none;html=1;sketch=1;curveFitting=1;jiggle=2;rounded=1;movable=0;resizable=0;rotatable=0;deletable=0;editable=0;locked=1;connectable=0;" parent="1" source="68" target="69" edge="1">
                    <mxGeometry relative="1" as="geometry"/>
                </mxCell>
                <mxCell id="71" value="" style="edgeStyle=none;html=1;sketch=1;curveFitting=1;jiggle=2;rounded=1;movable=0;resizable=0;rotatable=0;deletable=0;editable=0;locked=1;connectable=0;" parent="1" source="67" target="68" edge="1">
                    <mxGeometry relative="1" as="geometry"/>
                </mxCell>
                <mxCell id="72" value="" style="edgeStyle=none;html=1;sketch=1;curveFitting=1;jiggle=2;rounded=1;movable=0;resizable=0;rotatable=0;deletable=0;editable=0;locked=1;connectable=0;" parent="1" source="66" target="67" edge="1">
                    <mxGeometry relative="1" as="geometry"/>
                </mxCell>
                <mxCell id="73" style="edgeStyle=none;html=1;sketch=1;curveFitting=1;jiggle=2;rounded=1;movable=0;resizable=0;rotatable=0;deletable=0;editable=0;locked=1;connectable=0;" parent="1" source="65" target="66" edge="1">
                    <mxGeometry relative="1" as="geometry"/>
                </mxCell>
                <mxCell id="74" value="&lt;p&gt;0&lt;/p&gt;" style="text;html=1;align=center;verticalAlign=middle;resizable=0;points=[];autosize=1;strokeColor=none;fillColor=none;sketch=1;curveFitting=1;jiggle=2;rounded=1;movable=0;rotatable=0;deletable=0;editable=0;locked=1;connectable=0;" parent="1" vertex="1">
                    <mxGeometry x="135" y="566" width="30" height="50" as="geometry"/>
                </mxCell>
                <mxCell id="75" value="1" style="text;html=1;align=center;verticalAlign=middle;resizable=0;points=[];autosize=1;strokeColor=none;fillColor=none;sketch=1;curveFitting=1;jiggle=2;rounded=1;movable=0;rotatable=0;deletable=0;editable=0;locked=1;connectable=0;" parent="1" vertex="1">
                    <mxGeometry x="265" y="576" width="30" height="30" as="geometry"/>
                </mxCell>
                <mxCell id="76" value="2" style="text;html=1;align=center;verticalAlign=middle;resizable=0;points=[];autosize=1;strokeColor=none;fillColor=none;sketch=1;curveFitting=1;jiggle=2;rounded=1;movable=0;rotatable=0;deletable=0;editable=0;locked=1;connectable=0;" parent="1" vertex="1">
                    <mxGeometry x="395" y="576" width="30" height="30" as="geometry"/>
                </mxCell>
                <mxCell id="77" value="3" style="text;html=1;align=center;verticalAlign=middle;resizable=0;points=[];autosize=1;strokeColor=none;fillColor=none;sketch=1;curveFitting=1;jiggle=2;rounded=1;movable=0;rotatable=0;deletable=0;editable=0;locked=1;connectable=0;" parent="1" vertex="1">
                    <mxGeometry x="515" y="576" width="30" height="30" as="geometry"/>
                </mxCell>
                <mxCell id="78" value="4" style="text;html=1;align=center;verticalAlign=middle;resizable=0;points=[];autosize=1;strokeColor=none;fillColor=none;sketch=1;curveFitting=1;jiggle=2;rounded=1;movable=0;rotatable=0;deletable=0;editable=0;locked=1;connectable=0;" parent="1" vertex="1">
                    <mxGeometry x="645" y="576" width="30" height="30" as="geometry"/>
                </mxCell>
                <mxCell id="80" value="" style="endArrow=none;dashed=1;html=1;dashPattern=1 3;strokeWidth=2;movable=0;resizable=0;rotatable=0;deletable=0;editable=0;locked=1;connectable=0;" parent="1" edge="1">
                    <mxGeometry width="50" height="50" relative="1" as="geometry">
                        <mxPoint x="-162" y="481" as="sourcePoint"/>
                        <mxPoint x="896" y="481" as="targetPoint"/>
                    </mxGeometry>
                </mxCell>
                <mxCell id="81" value="On this first example you will know the max number of the array&amp;nbsp; and its indexes and how&amp;nbsp; we get the max size of the array.&lt;br&gt;&lt;br&gt;To determine the max size you need to subtract arr.length which is counted as real numbers in to one resulting into&amp;nbsp;&lt;br&gt;&lt;br&gt;arr.length - 1&amp;nbsp;&lt;br&gt;&lt;br&gt;Since index start from zero a real world counting woul lead to Out of Bounds or Error since Java counts 0&amp;nbsp; as 1." style="whiteSpace=wrap;html=1;aspect=fixed;movable=0;resizable=0;rotatable=0;deletable=0;editable=0;locked=1;connectable=0;" parent="1" vertex="1">
                    <mxGeometry x="787" y="49" width="244" height="244" as="geometry"/>
                </mxCell>
                <mxCell id="82" value="On this section you will learn how the algorithm traverse into the&amp;nbsp; array itself.&lt;br&gt;&lt;br&gt;In other terms to sort the items inside it we must have a starting point which is of course the first element index 0.&lt;br&gt;&lt;br&gt;This is a long explaination and pay attetntion to&amp;nbsp; every detail." style="whiteSpace=wrap;html=1;aspect=fixed;movable=0;resizable=0;rotatable=0;deletable=0;editable=0;locked=1;connectable=0;" parent="1" vertex="1">
                    <mxGeometry x="800" y="526" width="241" height="241" as="geometry"/>
                </mxCell>
                <mxCell id="101" value="&lt;font style=&quot;color: light-dark(rgb(0, 0, 0), rgb(71, 218, 255));&quot;&gt;for&amp;nbsp; (int&amp;nbsp; i&amp;nbsp; = 0;&amp;nbsp; i &amp;lt; max;&amp;nbsp; i++)&lt;/font&gt;" style="rounded=0;whiteSpace=wrap;html=1;movable=0;resizable=0;rotatable=0;deletable=0;editable=0;locked=1;connectable=0;" parent="1" vertex="1">
                    <mxGeometry x="-152" y="721" width="162" height="34" as="geometry"/>
                </mxCell>
                <mxCell id="105" value="" style="edgeStyle=elbowEdgeStyle;elbow=horizontal;endArrow=classic;html=1;curved=0;rounded=0;endSize=8;startSize=8;entryX=-0.055;entryY=0.36;entryDx=0;entryDy=0;entryPerimeter=0;exitX=0.334;exitY=0.088;exitDx=0;exitDy=0;exitPerimeter=0;movable=0;resizable=0;rotatable=0;deletable=0;editable=0;locked=1;connectable=0;" parent="1" source="101" edge="1">
                    <mxGeometry width="50" height="50" relative="1" as="geometry">
                        <mxPoint x="-28" y="667" as="sourcePoint"/>
                        <mxPoint x="132.3499999999999" y="585.0000000000002" as="targetPoint"/>
                        <Array as="points">
                            <mxPoint x="-99" y="582"/>
                        </Array>
                    </mxGeometry>
                </mxCell>
                <mxCell id="106" value="i is equal to 0 which is&amp;nbsp;&amp;nbsp;&lt;div&gt;we will start at 64.&lt;/div&gt;" style="edgeLabel;html=1;align=center;verticalAlign=middle;resizable=0;points=[];movable=0;rotatable=0;deletable=0;editable=0;locked=1;connectable=0;" parent="105" vertex="1" connectable="0">
                    <mxGeometry x="0.1439" relative="1" as="geometry">
                        <mxPoint x="12" y="29" as="offset"/>
                    </mxGeometry>
                </mxCell>
                <mxCell id="110" value="" style="endArrow=classic;html=1;entryX=0.5;entryY=1;entryDx=0;entryDy=0;movable=0;resizable=0;rotatable=0;deletable=0;editable=0;locked=1;connectable=0;" parent="1" target="65" edge="1">
                    <mxGeometry width="50" height="50" relative="1" as="geometry">
                        <mxPoint x="150" y="723" as="sourcePoint"/>
                        <mxPoint x="326" y="699" as="targetPoint"/>
                    </mxGeometry>
                </mxCell>
                <mxCell id="111" value="&lt;br&gt;&lt;div&gt;&lt;br&gt;&lt;/div&gt;" style="edgeLabel;html=1;align=center;verticalAlign=middle;resizable=0;points=[];movable=0;rotatable=0;deletable=0;editable=0;locked=1;connectable=0;" parent="110" vertex="1" connectable="0">
                    <mxGeometry x="-0.3101" relative="1" as="geometry">
                        <mxPoint as="offset"/>
                    </mxGeometry>
                </mxCell>
                <mxCell id="112" value="&lt;h1&gt;&lt;font style=&quot;color: light-dark(rgb(0, 0, 0), rgb(71, 218, 255));&quot;&gt;i&lt;/font&gt;&lt;/h1&gt;" style="text;html=1;align=center;verticalAlign=middle;resizable=0;points=[];autosize=1;strokeColor=none;fillColor=none;movable=0;rotatable=0;deletable=0;editable=0;locked=1;connectable=0;" parent="1" vertex="1">
                    <mxGeometry x="137" y="509" width="25" height="73" as="geometry"/>
                </mxCell>
                <mxCell id="119" value="" style="edgeStyle=none;html=1;movable=0;resizable=0;rotatable=0;deletable=0;editable=0;locked=1;connectable=0;" parent="1" source="116" target="118" edge="1">
                    <mxGeometry relative="1" as="geometry"/>
                </mxCell>
                <mxCell id="120" value="&lt;font style=&quot;color: light-dark(rgb(0, 0, 0), rgb(255, 102, 102));&quot;&gt;No&lt;/font&gt;" style="edgeLabel;html=1;align=center;verticalAlign=middle;resizable=0;points=[];movable=0;rotatable=0;deletable=0;editable=0;locked=1;connectable=0;" parent="119" vertex="1" connectable="0">
                    <mxGeometry x="-0.0724" y="1" relative="1" as="geometry">
                        <mxPoint as="offset"/>
                    </mxGeometry>
                </mxCell>
                <mxCell id="122" value="" style="edgeStyle=none;html=1;movable=0;resizable=0;rotatable=0;deletable=0;editable=0;locked=1;connectable=0;" parent="1" source="116" target="121" edge="1">
                    <mxGeometry relative="1" as="geometry"/>
                </mxCell>
                <mxCell id="123" value="&lt;font style=&quot;color: light-dark(rgb(0, 0, 0), rgb(62, 255, 56));&quot;&gt;Yes&lt;/font&gt;" style="edgeLabel;html=1;align=center;verticalAlign=middle;resizable=0;points=[];movable=0;rotatable=0;deletable=0;editable=0;locked=1;connectable=0;" parent="122" vertex="1" connectable="0">
                    <mxGeometry x="-0.1977" relative="1" as="geometry">
                        <mxPoint x="12" as="offset"/>
                    </mxGeometry>
                </mxCell>
                <mxCell id="116" value="&lt;div style=&quot;&quot;&gt;&lt;span style=&quot;text-wrap-mode: nowrap; background-color: transparent;&quot;&gt;condition i which is 0&amp;nbsp;&lt;/span&gt;&lt;/div&gt;&lt;div style=&quot;&quot;&gt;&lt;div style=&quot;text-wrap-mode: nowrap;&quot;&gt;&lt;span style=&quot;background-color: transparent;&quot;&gt;and max which is 4&lt;/span&gt;&lt;/div&gt;&lt;div style=&quot;&quot;&gt;&lt;span style=&quot;text-wrap-mode: nowrap;&quot;&gt;&lt;br&gt;&lt;/span&gt;&lt;/div&gt;&lt;span style=&quot;text-wrap-mode: nowrap;&quot;&gt;&lt;div style=&quot;&quot;&gt;&lt;span style=&quot;background-color: transparent;&quot;&gt;do i is greater than max?&lt;/span&gt;&lt;/div&gt;&lt;/span&gt;&lt;/div&gt;" style="rounded=0;whiteSpace=wrap;html=1;movable=0;resizable=0;rotatable=0;deletable=0;editable=0;locked=1;connectable=0;align=center;" parent="1" vertex="1">
                    <mxGeometry x="-195.5" y="881" width="287" height="161" as="geometry"/>
                </mxCell>
                <mxCell id="118" value="exit the code" style="whiteSpace=wrap;html=1;rounded=0;movable=0;resizable=0;rotatable=0;deletable=0;editable=0;locked=1;connectable=0;" parent="1" vertex="1">
                    <mxGeometry x="-112" y="1147" width="120" height="60" as="geometry"/>
                </mxCell>
                <mxCell id="138" style="edgeStyle=none;html=1;movable=0;resizable=0;rotatable=0;deletable=0;editable=0;locked=1;connectable=0;" parent="1" source="121" target="129" edge="1">
                    <mxGeometry relative="1" as="geometry"/>
                </mxCell>
                <mxCell id="139" value="Condition" style="edgeLabel;html=1;align=center;verticalAlign=middle;resizable=0;points=[];movable=0;rotatable=0;deletable=0;editable=0;locked=1;connectable=0;" parent="138" vertex="1" connectable="0">
                    <mxGeometry x="-0.1592" y="-1" relative="1" as="geometry">
                        <mxPoint x="1" y="-48" as="offset"/>
                    </mxGeometry>
                </mxCell>
                <mxCell id="142" value="&lt;font style=&quot;color: light-dark(rgb(0, 0, 0), rgb(255, 102, 102));&quot;&gt;No&lt;/font&gt;" style="edgeLabel;html=1;align=center;verticalAlign=middle;resizable=0;points=[];movable=0;rotatable=0;deletable=0;editable=0;locked=1;connectable=0;" parent="138" vertex="1" connectable="0">
                    <mxGeometry x="0.6951" y="1" relative="1" as="geometry">
                        <mxPoint as="offset"/>
                    </mxGeometry>
                </mxCell>
                <mxCell id="121" value="&lt;font style=&quot;color: light-dark(rgb(0, 0, 0), rgb(255, 255, 153));&quot;&gt;for (int j = 0 ; j &amp;lt; max - i; j++)&amp;nbsp;&lt;/font&gt;" style="whiteSpace=wrap;html=1;rounded=0;movable=0;resizable=0;rotatable=0;deletable=0;editable=0;locked=1;connectable=0;" parent="1" vertex="1">
                    <mxGeometry x="245" y="932" width="181" height="60" as="geometry"/>
                </mxCell>
                <mxCell id="124" value="We have another code here which is&amp;nbsp; &lt;font style=&quot;color: light-dark(rgb(0, 0, 0), rgb(255, 255, 51));&quot;&gt;j&lt;/font&gt;&lt;br&gt;but j and its equal to 0&lt;br&gt;Now j is pointing at the first element." style="text;html=1;align=center;verticalAlign=middle;resizable=0;points=[];autosize=1;strokeColor=none;fillColor=none;movable=0;rotatable=0;deletable=0;editable=0;locked=1;connectable=0;" parent="1" vertex="1">
                    <mxGeometry x="229" y="849" width="221" height="55" as="geometry"/>
                </mxCell>
                <mxCell id="125" value="" style="endArrow=classic;html=1;entryX=0.5;entryY=1;entryDx=0;entryDy=0;movable=0;resizable=0;rotatable=0;deletable=0;editable=0;locked=1;connectable=0;" parent="1" target="66" edge="1">
                    <mxGeometry width="50" height="50" relative="1" as="geometry">
                        <mxPoint x="280" y="724" as="sourcePoint"/>
                        <mxPoint x="281" y="682" as="targetPoint"/>
                    </mxGeometry>
                </mxCell>
                <mxCell id="126" value="&lt;h1&gt;&lt;font style=&quot;color: light-dark(rgb(0, 0, 0), rgb(233, 255, 124));&quot;&gt;j&lt;/font&gt;&lt;/h1&gt;" style="text;html=1;align=center;verticalAlign=middle;resizable=0;points=[];autosize=1;strokeColor=none;fillColor=none;movable=0;rotatable=0;deletable=0;editable=0;locked=1;connectable=0;" parent="1" vertex="1">
                    <mxGeometry x="137" y="710" width="25" height="73" as="geometry"/>
                </mxCell>
                <mxCell id="131" style="edgeStyle=orthogonalEdgeStyle;html=1;movable=0;resizable=0;rotatable=0;deletable=0;editable=0;locked=1;connectable=0;" parent="1" source="129" target="132" edge="1">
                    <mxGeometry relative="1" as="geometry">
                        <mxPoint x="-262" y="960" as="targetPoint"/>
                        <Array as="points">
                            <mxPoint x="345" y="1233"/>
                            <mxPoint x="344" y="1233"/>
                            <mxPoint x="344" y="1257"/>
                            <mxPoint x="-318" y="1257"/>
                        </Array>
                    </mxGeometry>
                </mxCell>
                <mxCell id="129" value="Return to the main loop" style="whiteSpace=wrap;html=1;rounded=0;movable=0;resizable=0;rotatable=0;deletable=0;editable=0;locked=1;connectable=0;" parent="1" vertex="1">
                    <mxGeometry x="277.5" y="1225" width="120" height="60" as="geometry"/>
                </mxCell>
                <mxCell id="133" style="edgeStyle=orthogonalEdgeStyle;html=1;entryX=0;entryY=0.5;entryDx=0;entryDy=0;exitX=0.5;exitY=0;exitDx=0;exitDy=0;movable=0;resizable=0;rotatable=0;deletable=0;editable=0;locked=1;connectable=0;" parent="1" source="132" target="101" edge="1">
                    <mxGeometry relative="1" as="geometry"/>
                </mxCell>
                <mxCell id="132" value="i++&lt;br&gt;&lt;br&gt;or we called increament i" style="rounded=0;whiteSpace=wrap;html=1;movable=0;resizable=0;rotatable=0;deletable=0;editable=0;locked=1;connectable=0;" parent="1" vertex="1">
                    <mxGeometry x="-378" y="932" width="120" height="60" as="geometry"/>
                </mxCell>
                <mxCell id="136" value="" style="endArrow=classic;html=1;exitX=0.625;exitY=0.971;exitDx=0;exitDy=0;exitPerimeter=0;entryX=0.5;entryY=0;entryDx=0;entryDy=0;movable=0;resizable=0;rotatable=0;deletable=0;editable=0;locked=1;connectable=0;" parent="1" source="101" target="116" edge="1">
                    <mxGeometry width="50" height="50" relative="1" as="geometry">
                        <mxPoint x="54" y="1065" as="sourcePoint"/>
                        <mxPoint x="104" y="1015" as="targetPoint"/>
                    </mxGeometry>
                </mxCell>
                <mxCell id="137" value="Condition" style="edgeLabel;html=1;align=center;verticalAlign=middle;resizable=0;points=[];movable=0;rotatable=0;deletable=0;editable=0;locked=1;connectable=0;" parent="136" vertex="1" connectable="0">
                    <mxGeometry x="-0.4696" y="-2" relative="1" as="geometry">
                        <mxPoint x="1" y="38" as="offset"/>
                    </mxGeometry>
                </mxCell>
                <mxCell id="144" value="" style="edgeStyle=none;html=1;movable=0;resizable=0;rotatable=0;deletable=0;editable=0;locked=1;connectable=0;" parent="1" source="141" edge="1">
                    <mxGeometry relative="1" as="geometry">
                        <mxPoint x="497" y="1127" as="targetPoint"/>
                    </mxGeometry>
                </mxCell>
                <mxCell id="146" value="&lt;font style=&quot;color: light-dark(rgb(0, 0, 0), rgb(62, 255, 56));&quot;&gt;Yes&lt;/font&gt;" style="edgeLabel;html=1;align=center;verticalAlign=middle;resizable=0;points=[];movable=0;rotatable=0;deletable=0;editable=0;locked=1;connectable=0;" parent="144" vertex="1" connectable="0">
                    <mxGeometry x="0.1283" y="-1" relative="1" as="geometry">
                        <mxPoint x="-13" y="-1" as="offset"/>
                    </mxGeometry>
                </mxCell>
                <mxCell id="141" value="j &amp;lt; max -i&amp;nbsp;" style="rhombus;whiteSpace=wrap;html=1;movable=0;resizable=0;rotatable=0;deletable=0;editable=0;locked=1;connectable=0;" parent="1" vertex="1">
                    <mxGeometry x="297.5" y="1089" width="80" height="80" as="geometry"/>
                </mxCell>
                <mxCell id="148" value="" style="endArrow=none;dashed=1;html=1;dashPattern=1 3;strokeWidth=2;movable=0;resizable=0;rotatable=0;deletable=0;editable=0;locked=1;connectable=0;" parent="1" edge="1">
                    <mxGeometry width="50" height="50" relative="1" as="geometry">
                        <mxPoint x="-171" y="1387" as="sourcePoint"/>
                        <mxPoint x="887" y="1387" as="targetPoint"/>
                    </mxGeometry>
                </mxCell>
                <mxCell id="150" value="" style="rounded=1;whiteSpace=wrap;html=1;strokeColor=#3EFF38;sketch=1;curveFitting=1;jiggle=2;fillColor=none;movable=0;resizable=0;rotatable=0;deletable=0;editable=0;locked=1;connectable=0;" parent="1" vertex="1">
                    <mxGeometry x="117" y="1528" width="640" height="130" as="geometry"/>
                </mxCell>
                <mxCell id="151" value="64" style="whiteSpace=wrap;html=1;aspect=fixed;sketch=1;curveFitting=1;jiggle=2;rounded=1;fillColor=none;movable=0;resizable=0;rotatable=0;deletable=0;editable=0;locked=1;connectable=0;" parent="1" vertex="1">
                    <mxGeometry x="137" y="1558" width="80" height="80" as="geometry"/>
                </mxCell>
                <mxCell id="152" value="10" style="whiteSpace=wrap;html=1;aspect=fixed;sketch=1;curveFitting=1;jiggle=2;rounded=1;fillColor=none;movable=0;resizable=0;rotatable=0;deletable=0;editable=0;locked=1;connectable=0;" parent="1" vertex="1">
                    <mxGeometry x="267" y="1558" width="80" height="80" as="geometry"/>
                </mxCell>
                <mxCell id="153" value="114" style="whiteSpace=wrap;html=1;aspect=fixed;sketch=1;curveFitting=1;jiggle=2;rounded=1;fillColor=none;movable=0;resizable=0;rotatable=0;deletable=0;editable=0;locked=1;connectable=0;" parent="1" vertex="1">
                    <mxGeometry x="397" y="1558" width="80" height="80" as="geometry"/>
                </mxCell>
                <mxCell id="154" value="23" style="whiteSpace=wrap;html=1;aspect=fixed;sketch=1;curveFitting=1;jiggle=2;rounded=1;fillColor=none;movable=0;resizable=0;rotatable=0;deletable=0;editable=0;locked=1;connectable=0;" parent="1" vertex="1">
                    <mxGeometry x="517" y="1558" width="80" height="80" as="geometry"/>
                </mxCell>
                <mxCell id="155" value="11" style="whiteSpace=wrap;html=1;aspect=fixed;sketch=1;curveFitting=1;jiggle=2;rounded=1;fillColor=none;movable=0;resizable=0;rotatable=0;deletable=0;editable=0;locked=1;connectable=0;" parent="1" vertex="1">
                    <mxGeometry x="647" y="1558" width="80" height="80" as="geometry"/>
                </mxCell>
                <mxCell id="156" value="&lt;p&gt;0&lt;/p&gt;" style="text;html=1;align=center;verticalAlign=middle;resizable=0;points=[];autosize=1;strokeColor=none;fillColor=none;sketch=1;curveFitting=1;jiggle=2;rounded=1;movable=0;rotatable=0;deletable=0;editable=0;locked=1;connectable=0;" parent="1" vertex="1">
                    <mxGeometry x="162" y="1526" width="30" height="50" as="geometry"/>
                </mxCell>
                <mxCell id="157" value="1" style="text;html=1;align=center;verticalAlign=middle;resizable=0;points=[];autosize=1;strokeColor=none;fillColor=none;sketch=1;curveFitting=1;jiggle=2;rounded=1;movable=0;rotatable=0;deletable=0;editable=0;locked=1;connectable=0;" parent="1" vertex="1">
                    <mxGeometry x="292" y="1536" width="30" height="30" as="geometry"/>
                </mxCell>
                <mxCell id="158" value="2" style="text;html=1;align=center;verticalAlign=middle;resizable=0;points=[];autosize=1;strokeColor=none;fillColor=none;sketch=1;curveFitting=1;jiggle=2;rounded=1;movable=0;rotatable=0;deletable=0;editable=0;locked=1;connectable=0;" parent="1" vertex="1">
                    <mxGeometry x="422" y="1536" width="30" height="30" as="geometry"/>
                </mxCell>
                <mxCell id="159" value="3" style="text;html=1;align=center;verticalAlign=middle;resizable=0;points=[];autosize=1;strokeColor=none;fillColor=none;sketch=1;curveFitting=1;jiggle=2;rounded=1;movable=0;rotatable=0;deletable=0;editable=0;locked=1;connectable=0;" parent="1" vertex="1">
                    <mxGeometry x="542" y="1536" width="30" height="30" as="geometry"/>
                </mxCell>
                <mxCell id="160" value="4" style="text;html=1;align=center;verticalAlign=middle;resizable=0;points=[];autosize=1;strokeColor=none;fillColor=none;sketch=1;curveFitting=1;jiggle=2;rounded=1;movable=0;rotatable=0;deletable=0;editable=0;locked=1;connectable=0;" parent="1" vertex="1">
                    <mxGeometry x="672" y="1536" width="30" height="30" as="geometry"/>
                </mxCell>
                <mxCell id="161" value="" style="endArrow=classic;html=1;entryX=0.5;entryY=1;entryDx=0;entryDy=0;movable=0;resizable=0;rotatable=0;deletable=0;editable=0;locked=1;connectable=0;" parent="1" edge="1">
                    <mxGeometry width="50" height="50" relative="1" as="geometry">
                        <mxPoint x="177.5" y="1683" as="sourcePoint"/>
                        <mxPoint x="177.5" y="1638" as="targetPoint"/>
                    </mxGeometry>
                </mxCell>
                <mxCell id="162" value="&lt;br&gt;&lt;div&gt;&lt;br&gt;&lt;/div&gt;" style="edgeLabel;html=1;align=center;verticalAlign=middle;resizable=0;points=[];movable=0;rotatable=0;deletable=0;editable=0;locked=1;connectable=0;" parent="161" vertex="1" connectable="0">
                    <mxGeometry x="-0.3101" relative="1" as="geometry">
                        <mxPoint as="offset"/>
                    </mxGeometry>
                </mxCell>
                <mxCell id="163" value="&lt;h1&gt;&lt;font style=&quot;color: light-dark(rgb(0, 0, 0), rgb(71, 218, 255));&quot;&gt;i&lt;/font&gt;&lt;/h1&gt;" style="text;html=1;align=center;verticalAlign=middle;resizable=0;points=[];autosize=1;strokeColor=none;fillColor=none;movable=0;rotatable=0;deletable=0;editable=0;locked=1;connectable=0;" parent="1" vertex="1">
                    <mxGeometry x="164" y="1468" width="25" height="73" as="geometry"/>
                </mxCell>
                <mxCell id="164" value="" style="endArrow=classic;html=1;entryX=0.5;entryY=1;entryDx=0;entryDy=0;movable=0;resizable=0;rotatable=0;deletable=0;editable=0;locked=1;connectable=0;" parent="1" edge="1">
                    <mxGeometry width="50" height="50" relative="1" as="geometry">
                        <mxPoint x="307.5" y="1684" as="sourcePoint"/>
                        <mxPoint x="307.5" y="1638" as="targetPoint"/>
                    </mxGeometry>
                </mxCell>
                <mxCell id="165" value="&lt;h1&gt;&lt;font style=&quot;color: light-dark(rgb(0, 0, 0), rgb(233, 255, 124));&quot;&gt;j&lt;/font&gt;&lt;/h1&gt;" style="text;html=1;align=center;verticalAlign=middle;resizable=0;points=[];autosize=1;strokeColor=none;fillColor=none;movable=0;rotatable=0;deletable=0;editable=0;locked=1;connectable=0;" parent="1" vertex="1">
                    <mxGeometry x="166.5" y="1664" width="25" height="73" as="geometry"/>
                </mxCell>
                <mxCell id="166" value="On these step you will learn the swap visualy.&lt;br&gt;You might find this crazy and you will not&amp;nbsp;&lt;div&gt;expect how it works . So on this example il be&lt;/div&gt;&lt;div&gt;Dedicating myself to explain this.&lt;/div&gt;" style="rounded=0;whiteSpace=wrap;html=1;movable=0;resizable=0;rotatable=0;deletable=0;editable=0;locked=1;connectable=0;" parent="1" vertex="1">
                    <mxGeometry x="828.5" y="1457.5" width="221.5" height="187" as="geometry"/>
                </mxCell>
                <mxCell id="170" value="" style="edgeStyle=none;html=1;movable=0;resizable=0;rotatable=0;deletable=0;editable=0;locked=1;connectable=0;" parent="1" source="168" target="169" edge="1">
                    <mxGeometry relative="1" as="geometry"/>
                </mxCell>
                <mxCell id="168" value="&lt;div&gt;&amp;nbsp;int temp = arr[j];&amp;nbsp;&lt;/div&gt;&lt;div&gt;&amp;nbsp; arr[j] = arr[j + 1];&amp;nbsp;&lt;/div&gt;&lt;div&gt;&amp;nbsp; &amp;nbsp;arr[j + 1] = temp;&amp;nbsp;&lt;/div&gt;" style="rounded=0;whiteSpace=wrap;html=1;movable=0;resizable=0;rotatable=0;deletable=0;editable=0;locked=1;connectable=0;" parent="1" vertex="1">
                    <mxGeometry x="-335" y="1543" width="211" height="100" as="geometry"/>
                </mxCell>
                <mxCell id="192" style="edgeStyle=orthogonalEdgeStyle;html=1;entryX=0.5;entryY=0;entryDx=0;entryDy=0;movable=0;resizable=0;rotatable=0;deletable=0;editable=0;locked=1;connectable=0;" parent="1" source="169" target="191" edge="1">
                    <mxGeometry relative="1" as="geometry"/>
                </mxCell>
                <mxCell id="169" value="First we create a new variable&amp;nbsp;&lt;div&gt;called temp&lt;/div&gt;" style="whiteSpace=wrap;html=1;rounded=0;resizable=0;movable=0;rotatable=0;deletable=0;editable=0;locked=1;connectable=0;" parent="1" vertex="1">
                    <mxGeometry x="-342" y="1741" width="225" height="111" as="geometry"/>
                </mxCell>
                <mxCell id="174" value="" style="rounded=1;whiteSpace=wrap;html=1;strokeColor=#3EFF38;sketch=1;curveFitting=1;jiggle=2;fillColor=none;movable=0;resizable=0;rotatable=0;deletable=0;editable=0;locked=1;connectable=0;" parent="1" vertex="1">
                    <mxGeometry x="119" y="1932" width="640" height="130" as="geometry"/>
                </mxCell>
                <mxCell id="175" value="64" style="whiteSpace=wrap;html=1;aspect=fixed;sketch=1;curveFitting=1;jiggle=2;rounded=1;fillColor=none;movable=0;resizable=0;rotatable=0;deletable=0;editable=0;locked=1;connectable=0;" parent="1" vertex="1">
                    <mxGeometry x="139" y="1962" width="80" height="80" as="geometry"/>
                </mxCell>
                <mxCell id="176" value="10" style="whiteSpace=wrap;html=1;aspect=fixed;sketch=1;curveFitting=1;jiggle=2;rounded=1;fillColor=none;movable=0;resizable=0;rotatable=0;deletable=0;editable=0;locked=1;connectable=0;" parent="1" vertex="1">
                    <mxGeometry x="269" y="1962" width="80" height="80" as="geometry"/>
                </mxCell>
                <mxCell id="177" value="114" style="whiteSpace=wrap;html=1;aspect=fixed;sketch=1;curveFitting=1;jiggle=2;rounded=1;fillColor=none;movable=0;resizable=0;rotatable=0;deletable=0;editable=0;locked=1;connectable=0;" parent="1" vertex="1">
                    <mxGeometry x="399" y="1962" width="80" height="80" as="geometry"/>
                </mxCell>
                <mxCell id="178" value="23" style="whiteSpace=wrap;html=1;aspect=fixed;sketch=1;curveFitting=1;jiggle=2;rounded=1;fillColor=none;movable=0;resizable=0;rotatable=0;deletable=0;editable=0;locked=1;connectable=0;" parent="1" vertex="1">
                    <mxGeometry x="519" y="1962" width="80" height="80" as="geometry"/>
                </mxCell>
                <mxCell id="179" value="11" style="whiteSpace=wrap;html=1;aspect=fixed;sketch=1;curveFitting=1;jiggle=2;rounded=1;fillColor=none;movable=0;resizable=0;rotatable=0;deletable=0;editable=0;locked=1;connectable=0;" parent="1" vertex="1">
                    <mxGeometry x="649" y="1962" width="80" height="80" as="geometry"/>
                </mxCell>
                <mxCell id="180" value="&lt;p&gt;0&lt;/p&gt;" style="text;html=1;align=center;verticalAlign=middle;resizable=0;points=[];autosize=1;strokeColor=none;fillColor=none;sketch=1;curveFitting=1;jiggle=2;rounded=1;movable=0;rotatable=0;deletable=0;editable=0;locked=1;connectable=0;" parent="1" vertex="1">
                    <mxGeometry x="164" y="1930" width="30" height="50" as="geometry"/>
                </mxCell>
                <mxCell id="181" value="1" style="text;html=1;align=center;verticalAlign=middle;resizable=0;points=[];autosize=1;strokeColor=none;fillColor=none;sketch=1;curveFitting=1;jiggle=2;rounded=1;movable=0;rotatable=0;deletable=0;editable=0;locked=1;connectable=0;" parent="1" vertex="1">
                    <mxGeometry x="294" y="1940" width="30" height="30" as="geometry"/>
                </mxCell>
                <mxCell id="182" value="2" style="text;html=1;align=center;verticalAlign=middle;resizable=0;points=[];autosize=1;strokeColor=none;fillColor=none;sketch=1;curveFitting=1;jiggle=2;rounded=1;movable=0;rotatable=0;deletable=0;editable=0;locked=1;connectable=0;" parent="1" vertex="1">
                    <mxGeometry x="424" y="1940" width="30" height="30" as="geometry"/>
                </mxCell>
                <mxCell id="183" value="3" style="text;html=1;align=center;verticalAlign=middle;resizable=0;points=[];autosize=1;strokeColor=none;fillColor=none;sketch=1;curveFitting=1;jiggle=2;rounded=1;movable=0;rotatable=0;deletable=0;editable=0;locked=1;connectable=0;" parent="1" vertex="1">
                    <mxGeometry x="544" y="1940" width="30" height="30" as="geometry"/>
                </mxCell>
                <mxCell id="184" value="4" style="text;html=1;align=center;verticalAlign=middle;resizable=0;points=[];autosize=1;strokeColor=none;fillColor=none;sketch=1;curveFitting=1;jiggle=2;rounded=1;movable=0;rotatable=0;deletable=0;editable=0;locked=1;connectable=0;" parent="1" vertex="1">
                    <mxGeometry x="674" y="1940" width="30" height="30" as="geometry"/>
                </mxCell>
                <mxCell id="185" value="" style="endArrow=classic;html=1;entryX=0.5;entryY=1;entryDx=0;entryDy=0;movable=0;resizable=0;rotatable=0;deletable=0;editable=0;locked=1;connectable=0;" parent="1" edge="1">
                    <mxGeometry width="50" height="50" relative="1" as="geometry">
                        <mxPoint x="179.5" y="2087" as="sourcePoint"/>
                        <mxPoint x="179.5" y="2042" as="targetPoint"/>
                    </mxGeometry>
                </mxCell>
                <mxCell id="186" value="&lt;br&gt;&lt;div&gt;&lt;br&gt;&lt;/div&gt;" style="edgeLabel;html=1;align=center;verticalAlign=middle;resizable=0;points=[];movable=0;rotatable=0;deletable=0;editable=0;locked=1;connectable=0;" parent="185" vertex="1" connectable="0">
                    <mxGeometry x="-0.3101" relative="1" as="geometry">
                        <mxPoint as="offset"/>
                    </mxGeometry>
                </mxCell>
                <mxCell id="187" value="&lt;h1&gt;&lt;font style=&quot;color: light-dark(rgb(0, 0, 0), rgb(71, 218, 255));&quot;&gt;i&lt;/font&gt;&lt;/h1&gt;" style="text;html=1;align=center;verticalAlign=middle;resizable=0;points=[];autosize=1;strokeColor=none;fillColor=none;movable=0;rotatable=0;deletable=0;editable=0;locked=1;connectable=0;" parent="1" vertex="1">
                    <mxGeometry x="165" y="1870" width="25" height="73" as="geometry"/>
                </mxCell>
                <mxCell id="188" value="" style="endArrow=classic;html=1;entryX=0.5;entryY=1;entryDx=0;entryDy=0;movable=0;resizable=0;rotatable=0;deletable=0;editable=0;locked=1;connectable=0;" parent="1" edge="1">
                    <mxGeometry width="50" height="50" relative="1" as="geometry">
                        <mxPoint x="309.5" y="2088" as="sourcePoint"/>
                        <mxPoint x="309.5" y="2042" as="targetPoint"/>
                    </mxGeometry>
                </mxCell>
                <mxCell id="189" value="&lt;h1&gt;&lt;font style=&quot;color: light-dark(rgb(0, 0, 0), rgb(233, 255, 124));&quot;&gt;j&lt;/font&gt;&lt;/h1&gt;" style="text;html=1;align=center;verticalAlign=middle;resizable=0;points=[];autosize=1;strokeColor=none;fillColor=none;movable=0;rotatable=0;deletable=0;editable=0;locked=1;connectable=0;" parent="1" vertex="1">
                    <mxGeometry x="166.5" y="2073" width="25" height="73" as="geometry"/>
                </mxCell>
                <mxCell id="220" value="" style="edgeStyle=none;html=1;movable=0;resizable=0;rotatable=0;deletable=0;editable=0;locked=1;connectable=0;" parent="1" source="191" target="219" edge="1">
                    <mxGeometry relative="1" as="geometry"/>
                </mxCell>
                <mxCell id="191" value="temp" style="rounded=0;whiteSpace=wrap;html=1;dashed=1;movable=0;resizable=0;rotatable=0;deletable=0;editable=0;locked=1;connectable=0;" parent="1" vertex="1">
                    <mxGeometry x="-13" y="1958" width="79" height="83" as="geometry"/>
                </mxCell>
                <mxCell id="194" style="edgeStyle=orthogonalEdgeStyle;html=1;entryX=1;entryY=0.5;entryDx=0;entryDy=0;movable=0;resizable=0;rotatable=0;deletable=0;editable=0;locked=1;connectable=0;" parent="1" source="193" target="121" edge="1">
                    <mxGeometry relative="1" as="geometry">
                        <mxPoint x="438" y="986" as="targetPoint"/>
                        <Array as="points">
                            <mxPoint x="565" y="962"/>
                        </Array>
                    </mxGeometry>
                </mxCell>
                <mxCell id="195" value="&lt;font style=&quot;color: light-dark(rgb(0, 0, 0), rgb(255, 102, 102));&quot;&gt;No&lt;/font&gt;" style="edgeLabel;html=1;align=center;verticalAlign=middle;resizable=0;points=[];movable=0;rotatable=0;deletable=0;editable=0;locked=1;connectable=0;" parent="194" vertex="1" connectable="0">
                    <mxGeometry x="0.081" relative="1" as="geometry">
                        <mxPoint x="-27" y="1" as="offset"/>
                    </mxGeometry>
                </mxCell>
                <mxCell id="196" style="edgeStyle=orthogonalEdgeStyle;html=1;entryX=0.5;entryY=0;entryDx=0;entryDy=0;exitX=1;exitY=0.5;exitDx=0;exitDy=0;movable=0;resizable=0;rotatable=0;deletable=0;editable=0;locked=1;connectable=0;" parent="1" source="193" target="168" edge="1">
                    <mxGeometry relative="1" as="geometry">
                        <Array as="points">
                            <mxPoint x="739" y="1127"/>
                            <mxPoint x="739" y="1455"/>
                            <mxPoint x="-229" y="1455"/>
                        </Array>
                    </mxGeometry>
                </mxCell>
                <mxCell id="197" value="&lt;font style=&quot;color: light-dark(rgb(0, 0, 0), rgb(62, 255, 56));&quot;&gt;Yes&lt;/font&gt;" style="edgeLabel;html=1;align=center;verticalAlign=middle;resizable=0;points=[];movable=0;rotatable=0;deletable=0;editable=0;locked=1;connectable=0;" parent="196" vertex="1" connectable="0">
                    <mxGeometry x="-0.9144" y="3" relative="1" as="geometry">
                        <mxPoint as="offset"/>
                    </mxGeometry>
                </mxCell>
                <mxCell id="193" value="&amp;nbsp;if (arr[j] &amp;gt; arr[j + 1])&amp;nbsp;" style="rhombus;whiteSpace=wrap;html=1;movable=0;resizable=0;rotatable=0;deletable=0;editable=0;locked=1;connectable=0;" parent="1" vertex="1">
                    <mxGeometry x="499" y="1049.5" width="132" height="155" as="geometry"/>
                </mxCell>
                <mxCell id="198" value="On our coindition we are comparing&amp;nbsp; the value of&amp;nbsp;&lt;div&gt;index j and index i where j is 64 and j + 1 is 10.&lt;br&gt;&lt;br&gt;If the condition is true proceed to swap but if the&lt;br&gt;condition is false then go back to loop&lt;/div&gt;" style="text;html=1;align=center;verticalAlign=middle;resizable=0;points=[];autosize=1;strokeColor=none;fillColor=none;movable=0;rotatable=0;deletable=0;editable=0;locked=1;connectable=0;" parent="1" vertex="1">
                    <mxGeometry x="615" y="992" width="279" height="84" as="geometry"/>
                </mxCell>
                <mxCell id="199" value="&lt;h1&gt;&lt;font style=&quot;color: light-dark(rgb(0, 0, 0), rgb(255, 102, 102));&quot;&gt;j + 1&lt;/font&gt;&lt;/h1&gt;" style="text;html=1;align=center;verticalAlign=middle;resizable=0;points=[];autosize=1;strokeColor=none;fillColor=none;movable=0;rotatable=0;deletable=0;editable=0;locked=1;connectable=0;" parent="1" vertex="1">
                    <mxGeometry x="248" y="710" width="65" height="73" as="geometry"/>
                </mxCell>
                <mxCell id="200" value="&lt;h1&gt;&lt;font style=&quot;color: light-dark(rgb(0, 0, 0), rgb(255, 102, 102));&quot;&gt;j + 1&lt;/font&gt;&lt;/h1&gt;" style="text;html=1;align=center;verticalAlign=middle;resizable=0;points=[];autosize=1;strokeColor=none;fillColor=none;movable=0;rotatable=0;deletable=0;editable=0;locked=1;connectable=0;" parent="1" vertex="1">
                    <mxGeometry x="272" y="1664" width="65" height="73" as="geometry"/>
                </mxCell>
                <mxCell id="217" value="&lt;h1&gt;&lt;font style=&quot;color: light-dark(rgb(0, 0, 0), rgb(255, 102, 102));&quot;&gt;j + 1&lt;/font&gt;&lt;/h1&gt;" style="text;html=1;align=center;verticalAlign=middle;resizable=0;points=[];autosize=1;strokeColor=none;fillColor=none;movable=0;rotatable=0;deletable=0;editable=0;locked=1;connectable=0;" parent="1" vertex="1">
                    <mxGeometry x="279" y="2073" width="65" height="73" as="geometry"/>
                </mxCell>
                <mxCell id="240" style="edgeStyle=none;html=1;movable=0;resizable=0;rotatable=0;deletable=0;editable=0;locked=1;connectable=0;" parent="1" source="219" target="237" edge="1">
                    <mxGeometry relative="1" as="geometry"/>
                </mxCell>
                <mxCell id="219" value="after we created the temp we will store&amp;nbsp; the value of arr[j] to the temp" style="rounded=0;whiteSpace=wrap;html=1;movable=0;resizable=0;rotatable=0;deletable=0;editable=0;locked=1;connectable=0;" parent="1" vertex="1">
                    <mxGeometry x="-42" y="2103" width="137" height="83" as="geometry"/>
                </mxCell>
                <mxCell id="221" value="" style="rounded=1;whiteSpace=wrap;html=1;strokeColor=#3EFF38;sketch=1;curveFitting=1;jiggle=2;fillColor=none;movable=0;resizable=0;rotatable=0;deletable=0;editable=0;locked=1;connectable=0;" parent="1" vertex="1">
                    <mxGeometry x="117" y="2222" width="640" height="130" as="geometry"/>
                </mxCell>
                <mxCell id="222" value="64" style="whiteSpace=wrap;html=1;aspect=fixed;sketch=1;curveFitting=1;jiggle=2;rounded=1;fillColor=none;movable=0;resizable=0;rotatable=0;deletable=0;editable=0;locked=1;connectable=0;" parent="1" vertex="1">
                    <mxGeometry x="137" y="2252" width="80" height="80" as="geometry"/>
                </mxCell>
                <mxCell id="223" value="10" style="whiteSpace=wrap;html=1;aspect=fixed;sketch=1;curveFitting=1;jiggle=2;rounded=1;fillColor=none;movable=0;resizable=0;rotatable=0;deletable=0;editable=0;locked=1;connectable=0;" parent="1" vertex="1">
                    <mxGeometry x="267" y="2252" width="80" height="80" as="geometry"/>
                </mxCell>
                <mxCell id="224" value="114" style="whiteSpace=wrap;html=1;aspect=fixed;sketch=1;curveFitting=1;jiggle=2;rounded=1;fillColor=none;movable=0;resizable=0;rotatable=0;deletable=0;editable=0;locked=1;connectable=0;" parent="1" vertex="1">
                    <mxGeometry x="397" y="2252" width="80" height="80" as="geometry"/>
                </mxCell>
                <mxCell id="225" value="23" style="whiteSpace=wrap;html=1;aspect=fixed;sketch=1;curveFitting=1;jiggle=2;rounded=1;fillColor=none;movable=0;resizable=0;rotatable=0;deletable=0;editable=0;locked=1;connectable=0;" parent="1" vertex="1">
                    <mxGeometry x="517" y="2252" width="80" height="80" as="geometry"/>
                </mxCell>
                <mxCell id="226" value="11" style="whiteSpace=wrap;html=1;aspect=fixed;sketch=1;curveFitting=1;jiggle=2;rounded=1;fillColor=none;movable=0;resizable=0;rotatable=0;deletable=0;editable=0;locked=1;connectable=0;" parent="1" vertex="1">
                    <mxGeometry x="647" y="2252" width="80" height="80" as="geometry"/>
                </mxCell>
                <mxCell id="227" value="&lt;p&gt;0&lt;/p&gt;" style="text;html=1;align=center;verticalAlign=middle;resizable=0;points=[];autosize=1;strokeColor=none;fillColor=none;sketch=1;curveFitting=1;jiggle=2;rounded=1;movable=0;rotatable=0;deletable=0;editable=0;locked=1;connectable=0;" parent="1" vertex="1">
                    <mxGeometry x="162" y="2220" width="30" height="50" as="geometry"/>
                </mxCell>
                <mxCell id="228" value="1" style="text;html=1;align=center;verticalAlign=middle;resizable=0;points=[];autosize=1;strokeColor=none;fillColor=none;sketch=1;curveFitting=1;jiggle=2;rounded=1;movable=0;rotatable=0;deletable=0;editable=0;locked=1;connectable=0;" parent="1" vertex="1">
                    <mxGeometry x="292" y="2230" width="30" height="30" as="geometry"/>
                </mxCell>
                <mxCell id="229" value="2" style="text;html=1;align=center;verticalAlign=middle;resizable=0;points=[];autosize=1;strokeColor=none;fillColor=none;sketch=1;curveFitting=1;jiggle=2;rounded=1;movable=0;rotatable=0;deletable=0;editable=0;locked=1;connectable=0;" parent="1" vertex="1">
                    <mxGeometry x="422" y="2230" width="30" height="30" as="geometry"/>
                </mxCell>
                <mxCell id="230" value="3" style="text;html=1;align=center;verticalAlign=middle;resizable=0;points=[];autosize=1;strokeColor=none;fillColor=none;sketch=1;curveFitting=1;jiggle=2;rounded=1;movable=0;rotatable=0;deletable=0;editable=0;locked=1;connectable=0;" parent="1" vertex="1">
                    <mxGeometry x="542" y="2230" width="30" height="30" as="geometry"/>
                </mxCell>
                <mxCell id="231" value="4" style="text;html=1;align=center;verticalAlign=middle;resizable=0;points=[];autosize=1;strokeColor=none;fillColor=none;sketch=1;curveFitting=1;jiggle=2;rounded=1;movable=0;rotatable=0;deletable=0;editable=0;locked=1;connectable=0;" parent="1" vertex="1">
                    <mxGeometry x="672" y="2230" width="30" height="30" as="geometry"/>
                </mxCell>
                <mxCell id="232" value="" style="endArrow=classic;html=1;entryX=0.5;entryY=1;entryDx=0;entryDy=0;movable=0;resizable=0;rotatable=0;deletable=0;editable=0;locked=1;connectable=0;" parent="1" edge="1">
                    <mxGeometry width="50" height="50" relative="1" as="geometry">
                        <mxPoint x="177.5" y="2377" as="sourcePoint"/>
                        <mxPoint x="177.5" y="2332" as="targetPoint"/>
                    </mxGeometry>
                </mxCell>
                <mxCell id="233" value="&lt;br&gt;&lt;div&gt;&lt;br&gt;&lt;/div&gt;" style="edgeLabel;html=1;align=center;verticalAlign=middle;resizable=0;points=[];movable=0;rotatable=0;deletable=0;editable=0;locked=1;connectable=0;" parent="232" vertex="1" connectable="0">
                    <mxGeometry x="-0.3101" relative="1" as="geometry">
                        <mxPoint as="offset"/>
                    </mxGeometry>
                </mxCell>
                <mxCell id="234" value="" style="endArrow=classic;html=1;entryX=0.5;entryY=1;entryDx=0;entryDy=0;movable=0;resizable=0;rotatable=0;deletable=0;editable=0;locked=1;connectable=0;" parent="1" edge="1">
                    <mxGeometry width="50" height="50" relative="1" as="geometry">
                        <mxPoint x="307.5" y="2378" as="sourcePoint"/>
                        <mxPoint x="307.5" y="2332" as="targetPoint"/>
                    </mxGeometry>
                </mxCell>
                <mxCell id="235" value="&lt;h1&gt;&lt;font style=&quot;color: light-dark(rgb(0, 0, 0), rgb(233, 255, 124));&quot;&gt;j&lt;/font&gt;&lt;/h1&gt;" style="text;html=1;align=center;verticalAlign=middle;resizable=0;points=[];autosize=1;strokeColor=none;fillColor=none;movable=0;rotatable=0;deletable=0;editable=0;locked=1;connectable=0;" parent="1" vertex="1">
                    <mxGeometry x="164.5" y="2363" width="25" height="73" as="geometry"/>
                </mxCell>
                <mxCell id="236" value="" style="edgeStyle=none;html=1;movable=0;resizable=0;rotatable=0;deletable=0;editable=0;locked=1;connectable=0;" parent="1" source="237" target="239" edge="1">
                    <mxGeometry relative="1" as="geometry"/>
                </mxCell>
                <mxCell id="237" value="64" style="rounded=0;whiteSpace=wrap;html=1;dashed=1;movable=0;resizable=0;rotatable=0;deletable=0;editable=0;locked=1;connectable=0;" parent="1" vertex="1">
                    <mxGeometry x="-15" y="2248" width="79" height="83" as="geometry"/>
                </mxCell>
                <mxCell id="238" value="&lt;h1&gt;&lt;font style=&quot;color: light-dark(rgb(0, 0, 0), rgb(255, 102, 102));&quot;&gt;j + 1&lt;/font&gt;&lt;/h1&gt;" style="text;html=1;align=center;verticalAlign=middle;resizable=0;points=[];autosize=1;strokeColor=none;fillColor=none;movable=0;rotatable=0;deletable=0;editable=0;locked=1;connectable=0;" parent="1" vertex="1">
                    <mxGeometry x="277" y="2363" width="65" height="73" as="geometry"/>
                </mxCell>
                <mxCell id="239" value="now we update the value of arr[j] to arr[j+1] which is 10" style="rounded=0;whiteSpace=wrap;html=1;movable=0;resizable=0;rotatable=0;deletable=0;editable=0;locked=1;connectable=0;" parent="1" vertex="1">
                    <mxGeometry x="-44" y="2393" width="137" height="83" as="geometry"/>
                </mxCell>
                <mxCell id="241" value="" style="rounded=1;whiteSpace=wrap;html=1;strokeColor=#3EFF38;sketch=1;curveFitting=1;jiggle=2;fillColor=none;movable=0;resizable=0;rotatable=0;deletable=0;editable=0;locked=1;connectable=0;" parent="1" vertex="1">
                    <mxGeometry x="121" y="2556" width="640" height="130" as="geometry"/>
                </mxCell>
                <mxCell id="242" value="10" style="whiteSpace=wrap;html=1;aspect=fixed;sketch=1;curveFitting=1;jiggle=2;rounded=1;fillColor=none;movable=0;resizable=0;rotatable=0;deletable=0;editable=0;locked=1;connectable=0;" parent="1" vertex="1">
                    <mxGeometry x="141" y="2586" width="80" height="80" as="geometry"/>
                </mxCell>
                <mxCell id="243" value="10" style="whiteSpace=wrap;html=1;aspect=fixed;sketch=1;curveFitting=1;jiggle=2;rounded=1;fillColor=none;movable=0;resizable=0;rotatable=0;deletable=0;editable=0;locked=1;connectable=0;" parent="1" vertex="1">
                    <mxGeometry x="271" y="2586" width="80" height="80" as="geometry"/>
                </mxCell>
                <mxCell id="244" value="114" style="whiteSpace=wrap;html=1;aspect=fixed;sketch=1;curveFitting=1;jiggle=2;rounded=1;fillColor=none;movable=0;resizable=0;rotatable=0;deletable=0;editable=0;locked=1;connectable=0;" parent="1" vertex="1">
                    <mxGeometry x="401" y="2586" width="80" height="80" as="geometry"/>
                </mxCell>
                <mxCell id="245" value="23" style="whiteSpace=wrap;html=1;aspect=fixed;sketch=1;curveFitting=1;jiggle=2;rounded=1;fillColor=none;movable=0;resizable=0;rotatable=0;deletable=0;editable=0;locked=1;connectable=0;" parent="1" vertex="1">
                    <mxGeometry x="521" y="2586" width="80" height="80" as="geometry"/>
                </mxCell>
                <mxCell id="246" value="11" style="whiteSpace=wrap;html=1;aspect=fixed;sketch=1;curveFitting=1;jiggle=2;rounded=1;fillColor=none;movable=0;resizable=0;rotatable=0;deletable=0;editable=0;locked=1;connectable=0;" parent="1" vertex="1">
                    <mxGeometry x="651" y="2586" width="80" height="80" as="geometry"/>
                </mxCell>
                <mxCell id="247" value="&lt;p&gt;0&lt;/p&gt;" style="text;html=1;align=center;verticalAlign=middle;resizable=0;points=[];autosize=1;strokeColor=none;fillColor=none;sketch=1;curveFitting=1;jiggle=2;rounded=1;movable=0;rotatable=0;deletable=0;editable=0;locked=1;connectable=0;" parent="1" vertex="1">
                    <mxGeometry x="166" y="2554" width="30" height="50" as="geometry"/>
                </mxCell>
                <mxCell id="248" value="1" style="text;html=1;align=center;verticalAlign=middle;resizable=0;points=[];autosize=1;strokeColor=none;fillColor=none;sketch=1;curveFitting=1;jiggle=2;rounded=1;movable=0;rotatable=0;deletable=0;editable=0;locked=1;connectable=0;" parent="1" vertex="1">
                    <mxGeometry x="296" y="2564" width="30" height="30" as="geometry"/>
                </mxCell>
                <mxCell id="249" value="2" style="text;html=1;align=center;verticalAlign=middle;resizable=0;points=[];autosize=1;strokeColor=none;fillColor=none;sketch=1;curveFitting=1;jiggle=2;rounded=1;movable=0;rotatable=0;deletable=0;editable=0;locked=1;connectable=0;" parent="1" vertex="1">
                    <mxGeometry x="426" y="2564" width="30" height="30" as="geometry"/>
                </mxCell>
                <mxCell id="250" value="3" style="text;html=1;align=center;verticalAlign=middle;resizable=0;points=[];autosize=1;strokeColor=none;fillColor=none;sketch=1;curveFitting=1;jiggle=2;rounded=1;movable=0;rotatable=0;deletable=0;editable=0;locked=1;connectable=0;" parent="1" vertex="1">
                    <mxGeometry x="546" y="2564" width="30" height="30" as="geometry"/>
                </mxCell>
                <mxCell id="251" value="4" style="text;html=1;align=center;verticalAlign=middle;resizable=0;points=[];autosize=1;strokeColor=none;fillColor=none;sketch=1;curveFitting=1;jiggle=2;rounded=1;movable=0;rotatable=0;deletable=0;editable=0;locked=1;connectable=0;" parent="1" vertex="1">
                    <mxGeometry x="676" y="2564" width="30" height="30" as="geometry"/>
                </mxCell>
                <mxCell id="252" value="" style="endArrow=classic;html=1;entryX=0.5;entryY=1;entryDx=0;entryDy=0;movable=0;resizable=0;rotatable=0;deletable=0;editable=0;locked=1;connectable=0;" parent="1" edge="1">
                    <mxGeometry width="50" height="50" relative="1" as="geometry">
                        <mxPoint x="181.5" y="2711" as="sourcePoint"/>
                        <mxPoint x="181.5" y="2666" as="targetPoint"/>
                    </mxGeometry>
                </mxCell>
                <mxCell id="253" value="&lt;br&gt;&lt;div&gt;&lt;br&gt;&lt;/div&gt;" style="edgeLabel;html=1;align=center;verticalAlign=middle;resizable=0;points=[];movable=0;rotatable=0;deletable=0;editable=0;locked=1;connectable=0;" parent="252" vertex="1" connectable="0">
                    <mxGeometry x="-0.3101" relative="1" as="geometry">
                        <mxPoint as="offset"/>
                    </mxGeometry>
                </mxCell>
                <mxCell id="254" value="" style="endArrow=classic;html=1;entryX=0.5;entryY=1;entryDx=0;entryDy=0;movable=0;resizable=0;rotatable=0;deletable=0;editable=0;locked=1;connectable=0;" parent="1" edge="1">
                    <mxGeometry width="50" height="50" relative="1" as="geometry">
                        <mxPoint x="311.5" y="2712" as="sourcePoint"/>
                        <mxPoint x="311.5" y="2666" as="targetPoint"/>
                    </mxGeometry>
                </mxCell>
                <mxCell id="255" value="&lt;h1&gt;&lt;font style=&quot;color: light-dark(rgb(0, 0, 0), rgb(233, 255, 124));&quot;&gt;j&lt;/font&gt;&lt;/h1&gt;" style="text;html=1;align=center;verticalAlign=middle;resizable=0;points=[];autosize=1;strokeColor=none;fillColor=none;movable=0;rotatable=0;deletable=0;editable=0;locked=1;connectable=0;" parent="1" vertex="1">
                    <mxGeometry x="168.5" y="2697" width="25" height="73" as="geometry"/>
                </mxCell>
                <mxCell id="257" value="64" style="rounded=0;whiteSpace=wrap;html=1;dashed=1;movable=0;resizable=0;rotatable=0;deletable=0;editable=0;locked=1;connectable=0;" parent="1" vertex="1">
                    <mxGeometry x="-11" y="2582" width="79" height="83" as="geometry"/>
                </mxCell>
                <mxCell id="258" value="&lt;h1&gt;&lt;font style=&quot;color: light-dark(rgb(0, 0, 0), rgb(255, 102, 102));&quot;&gt;j + 1&lt;/font&gt;&lt;/h1&gt;" style="text;html=1;align=center;verticalAlign=middle;resizable=0;points=[];autosize=1;strokeColor=none;fillColor=none;movable=0;rotatable=0;deletable=0;editable=0;locked=1;connectable=0;" parent="1" vertex="1">
                    <mxGeometry x="281" y="2697" width="65" height="73" as="geometry"/>
                </mxCell>
                <mxCell id="259" value="now we update arr[j+1] to temp which is 64" style="rounded=0;whiteSpace=wrap;html=1;movable=0;resizable=0;rotatable=0;deletable=0;editable=0;locked=1;connectable=0;" parent="1" vertex="1">
                    <mxGeometry x="243" y="2815" width="137" height="83" as="geometry"/>
                </mxCell>
                <mxCell id="260" style="edgeStyle=orthogonalEdgeStyle;html=1;entryX=0.567;entryY=-0.02;entryDx=0;entryDy=0;entryPerimeter=0;movable=0;resizable=0;rotatable=0;deletable=0;editable=0;locked=1;connectable=0;" parent="1" source="239" target="247" edge="1">
                    <mxGeometry relative="1" as="geometry"/>
                </mxCell>
                <mxCell id="261" value="Oh no we have double ten. Dont panic&lt;br&gt;thats how java works. Look at the temp&lt;br&gt;our 64 is safe." style="text;html=1;align=center;verticalAlign=middle;resizable=0;points=[];autosize=1;strokeColor=none;fillColor=none;movable=0;rotatable=0;deletable=0;editable=0;locked=1;connectable=0;" parent="1" vertex="1">
                    <mxGeometry x="187" y="2489" width="225" height="55" as="geometry"/>
                </mxCell>
                <mxCell id="262" value="" style="endArrow=classic;html=1;exitX=0.477;exitY=0.699;exitDx=0;exitDy=0;exitPerimeter=0;movable=0;resizable=0;rotatable=0;deletable=0;editable=0;locked=1;connectable=0;" parent="1" source="258" target="259" edge="1">
                    <mxGeometry width="50" height="50" relative="1" as="geometry">
                        <mxPoint x="352" y="2615" as="sourcePoint"/>
                        <mxPoint x="402" y="2565" as="targetPoint"/>
                    </mxGeometry>
                </mxCell>
                <mxCell id="263" value="" style="rounded=1;whiteSpace=wrap;html=1;strokeColor=#3EFF38;sketch=1;curveFitting=1;jiggle=2;fillColor=none;movable=0;resizable=0;rotatable=0;deletable=0;editable=0;locked=1;connectable=0;" parent="1" vertex="1">
                    <mxGeometry x="121" y="3000" width="640" height="130" as="geometry"/>
                </mxCell>
                <mxCell id="264" value="10" style="whiteSpace=wrap;html=1;aspect=fixed;sketch=1;curveFitting=1;jiggle=2;rounded=1;fillColor=none;movable=0;resizable=0;rotatable=0;deletable=0;editable=0;locked=1;connectable=0;" parent="1" vertex="1">
                    <mxGeometry x="141" y="3030" width="80" height="80" as="geometry"/>
                </mxCell>
                <mxCell id="265" value="64" style="whiteSpace=wrap;html=1;aspect=fixed;sketch=1;curveFitting=1;jiggle=2;rounded=1;fillColor=none;movable=0;resizable=0;rotatable=0;deletable=0;editable=0;locked=1;connectable=0;" parent="1" vertex="1">
                    <mxGeometry x="271" y="3030" width="80" height="80" as="geometry"/>
                </mxCell>
                <mxCell id="266" value="114" style="whiteSpace=wrap;html=1;aspect=fixed;sketch=1;curveFitting=1;jiggle=2;rounded=1;fillColor=none;movable=0;resizable=0;rotatable=0;deletable=0;editable=0;locked=1;connectable=0;" parent="1" vertex="1">
                    <mxGeometry x="401" y="3030" width="80" height="80" as="geometry"/>
                </mxCell>
                <mxCell id="267" value="23" style="whiteSpace=wrap;html=1;aspect=fixed;sketch=1;curveFitting=1;jiggle=2;rounded=1;fillColor=none;movable=0;resizable=0;rotatable=0;deletable=0;editable=0;locked=1;connectable=0;" parent="1" vertex="1">
                    <mxGeometry x="521" y="3030" width="80" height="80" as="geometry"/>
                </mxCell>
                <mxCell id="268" value="11" style="whiteSpace=wrap;html=1;aspect=fixed;sketch=1;curveFitting=1;jiggle=2;rounded=1;fillColor=none;movable=0;resizable=0;rotatable=0;deletable=0;editable=0;locked=1;connectable=0;" parent="1" vertex="1">
                    <mxGeometry x="651" y="3030" width="80" height="80" as="geometry"/>
                </mxCell>
                <mxCell id="269" value="&lt;p&gt;0&lt;/p&gt;" style="text;html=1;align=center;verticalAlign=middle;resizable=0;points=[];autosize=1;strokeColor=none;fillColor=none;sketch=1;curveFitting=1;jiggle=2;rounded=1;movable=0;rotatable=0;deletable=0;editable=0;locked=1;connectable=0;" parent="1" vertex="1">
                    <mxGeometry x="166" y="2998" width="30" height="50" as="geometry"/>
                </mxCell>
                <mxCell id="270" value="1" style="text;html=1;align=center;verticalAlign=middle;resizable=0;points=[];autosize=1;strokeColor=none;fillColor=none;sketch=1;curveFitting=1;jiggle=2;rounded=1;movable=0;rotatable=0;deletable=0;editable=0;locked=1;connectable=0;" parent="1" vertex="1">
                    <mxGeometry x="296" y="3008" width="30" height="30" as="geometry"/>
                </mxCell>
                <mxCell id="271" value="2" style="text;html=1;align=center;verticalAlign=middle;resizable=0;points=[];autosize=1;strokeColor=none;fillColor=none;sketch=1;curveFitting=1;jiggle=2;rounded=1;movable=0;rotatable=0;deletable=0;editable=0;locked=1;connectable=0;" parent="1" vertex="1">
                    <mxGeometry x="426" y="3008" width="30" height="30" as="geometry"/>
                </mxCell>
                <mxCell id="272" value="3" style="text;html=1;align=center;verticalAlign=middle;resizable=0;points=[];autosize=1;strokeColor=none;fillColor=none;sketch=1;curveFitting=1;jiggle=2;rounded=1;movable=0;rotatable=0;deletable=0;editable=0;locked=1;connectable=0;" parent="1" vertex="1">
                    <mxGeometry x="546" y="3008" width="30" height="30" as="geometry"/>
                </mxCell>
                <mxCell id="273" value="4" style="text;html=1;align=center;verticalAlign=middle;resizable=0;points=[];autosize=1;strokeColor=none;fillColor=none;sketch=1;curveFitting=1;jiggle=2;rounded=1;movable=0;rotatable=0;deletable=0;editable=0;locked=1;connectable=0;" parent="1" vertex="1">
                    <mxGeometry x="676" y="3008" width="30" height="30" as="geometry"/>
                </mxCell>
                <mxCell id="274" value="" style="endArrow=classic;html=1;entryX=0.5;entryY=1;entryDx=0;entryDy=0;movable=0;resizable=0;rotatable=0;deletable=0;editable=0;locked=1;connectable=0;" parent="1" edge="1">
                    <mxGeometry width="50" height="50" relative="1" as="geometry">
                        <mxPoint x="181.5" y="3155" as="sourcePoint"/>
                        <mxPoint x="181.5" y="3110" as="targetPoint"/>
                    </mxGeometry>
                </mxCell>
                <mxCell id="275" value="&lt;br&gt;&lt;div&gt;&lt;br&gt;&lt;/div&gt;" style="edgeLabel;html=1;align=center;verticalAlign=middle;resizable=0;points=[];movable=0;rotatable=0;deletable=0;editable=0;locked=1;connectable=0;" parent="274" vertex="1" connectable="0">
                    <mxGeometry x="-0.3101" relative="1" as="geometry">
                        <mxPoint as="offset"/>
                    </mxGeometry>
                </mxCell>
                <mxCell id="276" value="" style="endArrow=classic;html=1;entryX=0.5;entryY=1;entryDx=0;entryDy=0;movable=0;resizable=0;rotatable=0;deletable=0;editable=0;locked=1;connectable=0;" parent="1" edge="1">
                    <mxGeometry width="50" height="50" relative="1" as="geometry">
                        <mxPoint x="311.5" y="3156" as="sourcePoint"/>
                        <mxPoint x="311.5" y="3110" as="targetPoint"/>
                    </mxGeometry>
                </mxCell>
                <mxCell id="277" value="&lt;h1&gt;&lt;font style=&quot;color: light-dark(rgb(0, 0, 0), rgb(233, 255, 124));&quot;&gt;j&lt;/font&gt;&lt;/h1&gt;" style="text;html=1;align=center;verticalAlign=middle;resizable=0;points=[];autosize=1;strokeColor=none;fillColor=none;movable=0;rotatable=0;deletable=0;editable=0;locked=1;connectable=0;" parent="1" vertex="1">
                    <mxGeometry x="168.5" y="3141" width="25" height="73" as="geometry"/>
                </mxCell>
                <mxCell id="279" value="64" style="rounded=0;whiteSpace=wrap;html=1;dashed=1;movable=0;resizable=0;rotatable=0;deletable=0;editable=0;locked=1;connectable=0;" parent="1" vertex="1">
                    <mxGeometry x="-11" y="3026" width="79" height="83" as="geometry"/>
                </mxCell>
                <mxCell id="280" value="&lt;h1&gt;&lt;font style=&quot;color: light-dark(rgb(0, 0, 0), rgb(255, 102, 102));&quot;&gt;j + 1&lt;/font&gt;&lt;/h1&gt;" style="text;html=1;align=center;verticalAlign=middle;resizable=0;points=[];autosize=1;strokeColor=none;fillColor=none;movable=0;rotatable=0;deletable=0;editable=0;locked=1;connectable=0;" parent="1" vertex="1">
                    <mxGeometry x="281" y="3141" width="65" height="73" as="geometry"/>
                </mxCell>
                <mxCell id="285" style="edgeStyle=orthogonalEdgeStyle;html=1;strokeColor=light-dark(#000000,#47DAFF);movable=0;resizable=0;rotatable=0;deletable=0;editable=0;locked=1;connectable=0;" parent="1" target="132" edge="1">
                    <mxGeometry relative="1" as="geometry">
                        <mxPoint x="-373.02" y="960.0599999999997" as="targetPoint"/>
                        <mxPoint x="173.97925337910308" y="3249.0600000000004" as="sourcePoint"/>
                        <Array as="points">
                            <mxPoint x="-415" y="3249"/>
                            <mxPoint x="-415" y="960"/>
                        </Array>
                    </mxGeometry>
                </mxCell>
                <mxCell id="281" value="Tadaaa we now successfully swap the values" style="rounded=0;whiteSpace=wrap;html=1;movable=0;resizable=0;rotatable=0;deletable=0;editable=0;locked=1;connectable=0;" parent="1" vertex="1">
                    <mxGeometry x="179" y="3293" width="137" height="83" as="geometry"/>
                </mxCell>
                <mxCell id="282" style="edgeStyle=none;html=1;entryX=0.516;entryY=0.084;entryDx=0;entryDy=0;entryPerimeter=0;movable=0;resizable=0;rotatable=0;deletable=0;editable=0;locked=1;connectable=0;" parent="1" source="259" target="270" edge="1">
                    <mxGeometry relative="1" as="geometry"/>
                </mxCell>
                <mxCell id="284" value="" style="endArrow=classic;startArrow=classic;html=1;edgeStyle=orthogonalEdgeStyle;entryX=0.527;entryY=0.984;entryDx=0;entryDy=0;entryPerimeter=0;exitX=0.487;exitY=1.007;exitDx=0;exitDy=0;exitPerimeter=0;movable=0;resizable=0;rotatable=0;deletable=0;editable=0;locked=1;connectable=0;" parent="1" source="277" target="280" edge="1">
                    <mxGeometry width="50" height="50" relative="1" as="geometry">
                        <mxPoint x="146" y="3257" as="sourcePoint"/>
                        <mxPoint x="312.5" y="3210" as="targetPoint"/>
                        <Array as="points">
                            <mxPoint x="181" y="3262"/>
                            <mxPoint x="315" y="3262"/>
                        </Array>
                    </mxGeometry>
                </mxCell>
                <mxCell id="287" value="Go back to the main loop" style="rounded=0;whiteSpace=wrap;html=1;movable=0;resizable=0;rotatable=0;deletable=0;editable=0;locked=1;connectable=0;" parent="1" vertex="1">
                    <mxGeometry x="-475" y="2955" width="120" height="60" as="geometry"/>
                </mxCell>
            </root>
        </mxGraphModel>
    </diagram>
</mxfile>